<?xml version="1.0" encoding="UTF-8"?>
<svg id="Calque_1" data-name="Calque 1" xmlns="http://www.w3.org/2000/svg" xmlns:xlink="http://www.w3.org/1999/xlink" viewBox="0 0 841.89 595.28">
  <defs>
    <style>
      .cls-1 {
        fill: #003547;
      }

      .cls-2 {
        fill: #fff;
      }

      .cls-3 {
        fill: none;
      }

      .cls-4 {
        fill: #f5b82b;
      }

      .cls-5 {
        clip-path: url(#clippath);
      }
    </style>
    <clipPath id="clippath">
      <rect class="cls-3" width="841.89" height="595.28"/>
    </clipPath>
  </defs>
  <g class="cls-5">
    <path class="cls-4" d="M167.84,154.35s36.43,0,61.07,10.71c24.64,10.71,87.86,50.36,85.72,111.43-2.14,61.07-18.21,154.29-99.64,156.43-81.43,2.14-146.79-48.22-144.64-115.72,2.14-67.5,19.29-154.29,97.5-162.86"/>
    <path class="cls-4" d="M601.54,225.26h2.89l32.63,68.82h-17.54l-3.33-6.88h-26.31l-3.22,6.88h-17.54l32.41-68.82ZM610.65,275.54l-7.66-16.87h-.22l-7.77,16.87h15.65Z"/>
    <polygon class="cls-4" points="644.17 227.48 660.49 227.48 660.49 280.09 689.46 280.09 689.46 294.08 644.17 294.08 644.17 227.48"/>
    <polygon class="cls-4" points="697.34 227.48 713.66 227.48 713.66 280.09 742.63 280.09 742.63 294.08 697.34 294.08 697.34 227.48"/>
    <path class="cls-1" d="M549.75,315.8h.26c2.37,0,5.36-3.77,6.15-5,.09-.09.09-.17.09-.26-.26-.7-1.49-1.14-2.37-1.14-.35,0-.79.09-.97.35-2.72,2.37-3.69,4.21-3.69,5.27v.35c0,.26.26.44.53.44"/>
    <path class="cls-1" d="M636.58,324.49c0-.53-.26-.97-.7-.97-.09.09-.17.09-.17.09-5.27,1.58-14.75,8.51-19.14,11.85-.26.18-.53.44-.7.44-.09,0-.17-.09-.17-.18s0-.26.09-.44c2.11-6.23,4.39-9.66,4.39-16.42v-.17l.09-.53c0-1.14-.44-1.85-1.67-1.93-3.16-.09-2.63-.88-4.65-.88h-.18c-4.22,0-9.45,4.69-13.54,9.69-3.37,1.99-11.2,6.31-14.73,6.64-.18,0-.44,0-.61-.09-4.21-.53-.09-13.08-4.39-13.08h-.17c-.53,0-1.14.26-1.84.7-3.51,1.84-9.92,10.18-12.47,13.52-.17.35-.35.44-.53.44h-.09s-.09-.09-.09-.26c0-.09,0-.18.09-.35,1.58-5.09,4.57-10.54,6.67-15.54.09-.09.09-.17.09-.26,0-.53-.88-1.05-1.67-1.05h-.17c-.26,0-.53.09-.7.35-.36.48-2.27,4.88-4.24,9.62-5.75,4.81-15.08,10.85-21.13,12.58-.53.18-.97.27-1.32.27-1.32,0-1.84-.88-1.84-2.11,0-3.42,2.55-8.87,5.53-12.03.53-.53.79-.79.79-1.23,0-.7-.79-1.49-1.58-1.49-.35,0-.61.17-.88.35-.92,1.01-1.99,2.46-3.01,4.12-3.15,2.68-8.77,7.51-15.25,8.96-.7.09-1.32.18-1.84.18-2.02,0-2.63-1.14-2.63-2.81,0-1.75.7-4.13.88-6.23,0-1.32-.09-2.63-1.76-2.63h-.09c-1.84,0-5,3.34-6.15,4.56-2.2,2.37-4.13,4.83-6.06,7.29-.18.26-.35.53-.53.7h-.09c-.09,0-.18,0-.18-.09v-.09c0-.26.7-1.76.79-1.93,4.56-10.45,9.39-20.72,14.66-30.73.18-.26.35-.61.61-.79h.53c1.23,0,1.49-.88,1.93-1.84.35-1.05,2.11-4.21,2.11-4.92v-.09c0-.97-.61-1.4-1.23-1.4-.79,0-1.76.79-2.55,2.02-1.58,2.55-3.16,5.09-4.57,7.73-2.13,4.13-6.06,12.08-9.8,20.06-2.6,1.52-14.55,10.23-23.21,12.78-1.23.35-2.28.53-3.16.53h-.44c-1.76-.09-2.55-1.05-2.55-2.55s.79-3.69,2.37-6.32c2.46-3.95,6.76-7.64,10.01-7.64h.26c.44.35.88.53,1.23.53h.17c.53,0,.88-.35,1.14-.7.18-.26.26-.62.26-.88,0-.79-.53-1.49-2.11-1.76-.18-.09-.35-.09-.53-.09h-.44c-3.07,0-7.73,2.46-10.97,6.67-.68.82-1.31,1.73-1.87,2.67-4.16,4.29-11.59,10.15-14.81,10.15-.97,0-1.58-.61-1.58-1.84v-.35c0-4.83,1.58-6.76,2.63-10.54.17-.7.26-1.14.26-1.49,0-.96-.62-.79-.62-2.19,0-.26,0-.53.09-.97,0-2.28-.44-4.74-3.34-4.74-.7,0-1.58.18-2.46.61-3.94,1.75-7.91,5.72-11.07,9.9-1.63.81-3.23,1.25-4.73,1.25h-.7c-4.39,0-8.16-2.46-8.16-6.5,0-1.4.26-1.93.26-3.34,0-1.49-.18-3.33-2.11-3.33-1.58.35-2.11,1.93-2.11,3.69s.44,3.51.7,4.83c-.7,5-6.06,15.71-10.27,15.71-1.05,0-1.76-1.14-1.76-2.72,0-3.6,2.81-9.92,9.66-13.61,1.32-.53.26-3.16-1.23-2.37-1.36.65-2.75,1.63-4.06,2.83-.24.07-.45.2-.59.41-4.92,5.79-25.72,25.11-37.66,27.57-.88.18-1.67.26-3.16.26-6.49-.62-6.23-7.55-5.18-13.26,2.72-13.52,15.45-33.71,32.66-42.49,1.58-.79,2.9-1.14,3.86-1.14,2.11.17,2.9,1.49,2.9,3.42s-1.32,6.41-4.13,9.13c-5.36,5.44-7.38,8.43-7.64,9.92,0,2.55,2.37,1.14,3.6.09,4.83-4.57,7.2-8.95,7.99-9.92,2.19-2.81,7.02-6.41,9.75-6.41.79.18,1.23.53,1.58.53.96,0,1.49-.79,1.58-1.58,0-1.67-1.05-1.84-1.76-1.84-2.28,0-5.79,1.84-7.29,2.81-.7.44-1.4.7-1.4-.53.18-.88.26-1.84.26-2.81,0-3.86-1.84-5.7-4.83-5.7-4.04,0-9.57,3.25-12.38,5.53-15.89,12.55-24.93,28.18-27.39,39.86-1.58,7.82-.79,16.77,7.55,17.47,1.76,0,2.72-.09,3.78-.26,8.74-1.76,22.55-12.74,31.44-21.06-.34,1.16-.53,2.32-.53,3.41,0,2.37.96,4.13,3.16,4.74.44.09.88.18,1.32.18,4.74-.35,9.3-8.17,10.97-12.2,1.14-2.55.44-3.34,2.54-1.49,2.02,1.67,4.57,2.28,7.2,2.28h1.05c1.05,0,2.13-.16,3.2-.42-1.02,1.55-1.9,3.08-2.59,4.46-1.14,2.11-1.58,3.86-1.58,5.09,0,1.4.7,2.19,1.93,2.19,1.32,0,3.16-.88,5.44-2.81l10.71-9.3c.44-.44.79-.61.97-.61.09,0,.18.09.18.26,0,1.05-1.32,4.21-1.32,7.37,0,.35.09.79.09,1.23.35,2.54,2.02,3.51,4.04,3.51.35,0,.7,0,1.05-.09,3.21-.43,7.96-3.87,11.82-7.5-.2.86-.31,1.71-.31,2.49,0,2.63,1.23,4.65,4.65,4.92.88,0,1.93,0,3.16-.26,7.04-1.35,17.4-8.01,22.7-11.73-3.1,6.75-5.82,13.06-6.89,16.56,0,.18-.09.35-.09.44,0,.88.88,1.41,1.76,1.41.79,0,1.58-.35,1.93-1.14,2.55-5.44,11.59-17.65,14.14-17.74.26,0,.35.18.35.61,0,.97-.62,3.07-.62,5.09,0,2.28.88,4.48,4.92,4.48h.61c5.05,0,10.5-3.53,14.38-6.74-.89,2.08-1.48,4.13-1.48,5.77,0,2.81,1.67,4.65,4.39,4.65.61,0,1.32-.18,2.11-.35,4.38-1.3,13.49-6.81,19.34-11.47-1.74,4.29-3.19,8.04-3.19,8.48,0,1.05,1.05,1.76,2.2,1.76h.18c.61,0,1.32-.35,1.67-.88,2.46-4.12,11.85-16.94,14.57-16.94h.18c.44,0,.44,1.05.44,2.46v.79c0,3.6.18,8.95,4.83,8.95h.35c2.62,0,7.97-2.59,12.06-4.91-1.23,1.82-2.22,3.5-2.84,4.82-1.05,2.2-1.49,4.04-1.49,5.44,0,2.11,1.05,3.16,2.46,3.16.97,0,2.11-.53,3.25-1.49,5.44-4.65,12.55-13.26,17.12-18.79.61-.7.97-1.05,1.23-1.05.18,0,.26.17.26.53,0,2.98-5.79,17.03-5.88,17.38-2.02,4.48-12.82,10.36-21.77,29.76-.79,1.75-1.14,3.16-1.14,4.39,0,2.11,1.14,3.25,2.46,3.25.7,0,1.4-.26,2.11-.88,7.72-6.23,14.84-23,19.22-31.61,2.55-5.09,17.12-15.36,23.79-18.52.53-.26.79-.79.79-1.23M463.63,323.08c-4.13,3.86-8.16,7.82-12.55,11.33-2.28,1.84-3.6,2.72-4.04,2.72-.17,0-.26-.09-.26-.26,0-.53.79-2.11,2.2-4.57,1-1.77,2.14-3.54,3.41-5.23.13-.07.23-.21.29-.38,2.57-3.33,5.64-6.27,9.12-8.09.44-.26.88-.44,1.23-.44,1.14,0,1.23,2.11,1.23,2.98,0,.7-.18,1.4-.62,1.93M595.76,339.41c-.26,0-.44-.18-.44-.61,0-1.05,1.05-3.51,3.6-7.64,2.2-3.69,10.27-13.61,14.75-13.61h.18c.61,0,1.14.17,1.14.7,0,.7-15.98,21.16-19.23,21.16M605.68,350.65c-1.58,4.74-5.97,12.12-8.87,16.24-2.72,3.86-4.74,6.06-5.44,6.06-.18,0-.26-.18-.26-.44,0-.88.79-2.9,2.72-6.41,3.86-7.29,6.15-9.48,10.8-15.19.35-.35.79-.79.97-.79.09,0,.18.09.18.17s0,.18-.09.35"/>
    <path class="cls-1" d="M723.52,353.92h.26c2.37,0,5.36-3.77,6.15-5,.09-.09.09-.17.09-.26-.26-.7-1.49-1.14-2.37-1.14-.35,0-.79.09-.97.35-2.72,2.37-3.69,4.21-3.69,5.27v.35c0,.26.26.44.53.44"/>
    <path class="cls-1" d="M775.23,362.62h-.18c-.09,0-.26,0-.44.18-2.9,1.76-11.59,6.67-15.36,7.02-.17,0-.44,0-.61-.09-4.21-.53-.09-13.08-4.39-13.08h-.18c-.53,0-1.14.26-1.84.7-3.51,1.84-9.92,10.18-12.47,13.52-.18.35-.35.44-.53.44h-.09s-.09-.09-.09-.26c0-.09,0-.18.09-.35,1.58-5.09,4.57-10.54,6.67-15.54.09-.09.09-.18.09-.26,0-.53-.88-1.05-1.67-1.05h-.18c-.26,0-.53.09-.7.35-.36.48-2.27,4.88-4.24,9.62-5.75,4.81-15.08,10.85-21.13,12.59-.53.18-.97.26-1.32.26-1.32,0-1.84-.88-1.84-2.11,0-3.42,2.54-8.87,5.53-12.03.53-.53.79-.79.79-1.23,0-.7-.79-1.49-1.58-1.49-.35,0-.61.18-.88.35-.72.79-1.54,1.87-2.35,3.1-3.44,2.02-11.1,6.24-14.59,6.56-.18,0-.44,0-.61-.09-4.21-.53-.09-13.08-4.39-13.08h-.17c-.53,0-1.14.26-1.84.7-3.51,1.84-9.92,10.18-12.47,13.52-.17.35-.35.44-.53.44h-.09s-.09-.09-.09-.26c0-.09,0-.18.09-.35,1.58-5.09,4.57-10.54,6.67-15.54.09-.09.09-.18.09-.26,0-.53-.88-1.05-1.67-1.05h-.17c-.26,0-.53.09-.7.35-.38.51-2.53,5.48-4.64,10.58-3.99,4.32-12.07,10.84-15.47,10.84-.97,0-1.58-.61-1.58-1.84v-.35c0-4.83,1.58-6.76,2.63-10.53.18-.7.26-1.14.26-1.49,0-.96-.61-.79-.61-2.19,0-.26,0-.53.09-.97,0-2.28-.44-4.74-3.34-4.74-.7,0-1.58.18-2.46.61-3.3,1.47-6.63,4.5-9.48,7.91-.06.03-.12.05-.18.08-2.02,1.05-14.49,10.27-23.44,12.9-1.23.35-2.28.53-3.16.53h-.44c-1.76-.09-2.55-1.05-2.55-2.55s.79-3.69,2.37-6.32c2.46-3.95,6.76-7.64,10.01-7.64h.26c.44.35.88.53,1.23.53h.18c.53,0,.88-.35,1.14-.7.18-.26.26-.61.26-.88,0-.79-.53-1.49-2.11-1.76-.18-.09-.35-.09-.53-.09h-.44c-3.07,0-7.73,2.46-10.97,6.67-2.55,3.07-4.39,7.2-4.39,10.45,0,2.63,1.23,4.65,4.65,4.92.88,0,1.93,0,3.16-.26,6.37-1.22,15.46-6.79,21.06-10.6-.92,1.43-1.72,2.82-2.36,4.1-1.14,2.11-1.58,3.86-1.58,5.09,0,1.4.7,2.19,1.93,2.19,1.32,0,3.16-.88,5.44-2.81l10.71-9.31c.44-.44.79-.61.97-.61.09,0,.18.09.18.26,0,1.05-1.32,4.21-1.32,7.37,0,.35.09.79.09,1.23.35,2.54,2.02,3.51,4.04,3.51.35,0,.7,0,1.05-.09,3.42-.46,8.56-4.31,12.53-8.18-1.3,3.25-2.26,5.81-2.26,6.17,0,1.05,1.05,1.76,2.2,1.76h.18c.61,0,1.32-.35,1.67-.88,2.46-4.12,11.85-16.94,14.57-16.94h.18c.44,0,.44,1.05.44,2.46v.79c0,3.6.18,8.95,4.83,8.95h.35c2.82,0,8.8-2.99,12.96-5.43-1.43,2.79-2.52,5.75-2.52,7.97,0,2.81,1.67,4.65,4.39,4.65.61,0,1.32-.18,2.11-.35,4.38-1.3,13.49-6.81,19.34-11.47-1.74,4.29-3.19,8.04-3.19,8.48,0,1.05,1.05,1.76,2.2,1.76h.17c.61,0,1.32-.35,1.67-.88,2.46-4.12,11.85-16.94,14.57-16.94h.17c.44,0,.44,1.05.44,2.46v.79c0,3.6.17,8.95,4.83,8.95h.35c4.04,0,14.57-6.15,16.94-7.99.26-.26.35-.53.35-.79,0-.53-.26-.97-.79-.97M663.29,361.21c-4.13,3.86-8.17,7.82-12.55,11.33-2.28,1.84-3.6,2.72-4.04,2.72-.17,0-.26-.09-.26-.26,0-.53.79-2.11,2.2-4.57,3.07-5.44,7.46-10.89,12.82-13.69.44-.26.88-.44,1.23-.44,1.14,0,1.23,2.11,1.23,2.99,0,.7-.18,1.4-.61,1.93"/>
    <path class="cls-1" d="M362.61,227.48h23.2c19.65,0,34.85,14.43,34.85,33.19,0,17.76-13.54,33.41-34.85,33.41h-23.2v-66.6ZM385.48,279.21c10.43,0,18.43-7.33,18.43-18.54,0-10.32-6.99-18.42-18.43-18.42h-6.55v36.96h6.55Z"/>
    <path class="cls-1" d="M469.39,225.26c20.98,0,35.85,15.65,35.85,35.52s-14.87,35.52-35.85,35.52-35.85-15.65-35.85-35.52,14.76-35.52,35.85-35.52M469.39,280.87c11.77,0,19.31-8.88,19.31-20.09s-7.55-20.09-19.31-20.09-19.31,8.88-19.31,20.09,7.44,20.09,19.31,20.09"/>
    <path class="cls-1" d="M553.43,225.26c12.32,0,20.87,4.55,27.86,11.66l-11.32,10.43c-4.55-4.11-10.21-6.66-16.54-6.66-11.88,0-19.54,8.88-19.54,20.09,0,12.32,8.77,20.09,19.87,20.09,11.66,0,17.32-6.44,17.76-12.88h-18.98v-14.1h36.63v6.33c0,19.65-11.54,36.07-35.74,36.07-21.09,0-36.07-15.65-36.07-35.52s14.98-35.52,36.07-35.52"/>
    <path class="cls-1" d="M322.14,228.03s13.59,30.13,13.92,54.52c.33,24.38-8.89,91.46-60.2,112.46-51.32,21.01-134.42,42.48-166.56-24.08-32.14-66.56-14.87-139.4,41.77-162.81,56.63-23.4,134.82-41.59,171.08,19.91"/>
    <path class="cls-2" d="M163.26,305.94s.18-.82.18-.82c1.26-3.61,2.32-7.28,3.1-11.04.51-2.84,1.27-5.9.95-8.83.64.66,1.24,1.26,1.48,1.52,0,0-.37-1.15-.37-1.16-.91-6.89-1.74-13.8-2.32-20.71-.12-1.67-.25-3.38-.28-5.01.78.2,1.5.59,2.03,1.24l1.5,1.86s-.93-2.02-.93-2.03c-.07-5.51-.36-11.22,1.09-16.55.41-1.37.98-2.68,1.84-3.67.63,1.36.81,2.97,1.09,4.44l1.07-.08c.21-2.98.13-6.12.14-9.1,0-.12,0-.26.01-.39.61,1.4,1.53,3.45,1.99,4.52l.97-2.81c-.01-1.86.15-3.85.53-5.69.36-1.69.9-3.38,1.92-4.79.52,1.43,1.88,5.13,2.06,5.64l.76-.63c.98-.92,1.99-1.94,3.12-2.66.3.99.25,2.26.31,3.3l.84-.7c1.79-1.4,3.55-2.83,5.16-4.45.07-.09.15-.17.22-.25.01,0,.02,0,.02,0,0-.01,0-.03,0-.04.23-.25.46-.49.66-.75.2.25.38.53.52.88.33.8.39,1.71.33,2.58.23-.05.87-.21,1.42-.34.39.32.71.87.88,1.38.28.74.4,1.56.43,2.36,0,0,.04,0,.1,0-2.58,1.48-4.74,3.81-6.35,6.28-1.59.81-2.65,2.32-3.49,3.84-.14.25-.26.51-.39.76.27-1.21.53-2.35.66-2.96-.5.43-2.06,1.63-2.48,2.09-1.3,1.46-2.12,3.33-2.83,5.12-.51,1.4-1.04,2.79-1.33,4.23-.22-1.33-.48-2.84-.54-3.24l-1.01.6c-.57.38-.9.88-1.14,1.35-1.32,3.09-1.04,6.55-.85,9.8l.59-.03c.06-2.67.23-5.42,1.06-7.94.13-.38.3-.75.49-1.06.5,1.16,1.19,2.75,1.19,2.75l-.12,1.03.69-1.03c1.73-2.76,2.53-6.22,4.16-9.05-.02,1.21-.05,2.43-.05,2.43,0,0-.02,1.09-.02,1.09,0,0,.59-.95.59-.95,1.56-2.46,2.86-5.3,4.64-7.64-.19,2.14-.62,7.08-.64,7.26l.97-.35s1.62-.91,2.22-1.25c.57,1.04.57,2.36.59,3.52,2.47-2.57,4.87-5.76,7.8-7.81.18.16.36.31.36.31.91.74,1.56,1.66,2.08,2.75l.27-.39s1.94-2.77,2.58-3.67c1.99,1.46,2.18,6.47,2.36,8.68l.45-.4s2.02-1.81,2.67-2.39c.07.12.15.27.18.42.36,1.77-.54,3.51-.9,5.22l-.49,2.59,2.1-1.14s.85-.46,1.58-.85c.21,2.92-.49,6-2.21,8.39l-.55.86.7.43c.45.36.82.99.99,1.55.68,2.17-.46,4.5-1.65,6.31l.46.36c2.21-2.34,3.89-6.08,2-8.99,1.88-3.1,2.43-6.87,1.78-10.44l-.17-.88-.97.26s-.41.1-.92.23c.04-.55.04-1.1-.02-1.66-.15-1.29-.49-3.06-2.01-3.4,0,0-.12.1-.12.11l-2.23,1.99c.26-1.41.55-2.82.9-4.19,1.2-4.73,3.26-9.65,7.65-12.22-.14,13-.25,27.85-.15,40.1h.59c.14-3.06.24-6.12.35-9.19.25-6.2.63-21.2.81-27.59.09-3.95.27-11.64.33-15.52.8-6.3,3.23-13.41,9.15-16.49-1.14,6.54-.94,13.2-.77,19.79.18,4.73.56,10.86,1.03,14.85-1.1,8.63-2.82,22.18-3.77,30.71l.58.08c.64-3.79,1.88-11.48,2.48-15.27l2.37-15.29v-.08s0-.11,0-.11c-.56-9.21-2-33.17,2.59-40.38,1.36-1.7,2.9-3.57,4.57-4.89.91-.65,1.48-.93,2.63-.76l.9.1c1.76.36,2.74,2.28,3.61,3.85l.58-.08c.12-1.37-.22-2.73-.97-3.97-.41-.7-1.08-1.39-1.91-1.82-.42-.2-1.03-.33-1.46-.38-3.32-.82-5.73,1.66-7.74,3.86-.74.82-1.49,1.7-2.18,2.57-.97,1.3-1.55,2.84-1.94,4.26-.17.71-.32,1.43-.46,2.15-7.12,1.86-10.16,9.97-11.01,16.6-.14,1.5-.1,5.39-.16,6.97-.02,1.9-.04,3.87-.07,5.88-.06-.14-.2-.49-.2-.49-5.18,1.52-7.93,6.55-8.84,11.75-.42-2.01-1.33-3.89-3.33-3.91l-.2.45s-.98,2.2-1.61,3.62c-.08-.35-.23-.68-.4-.99.22-.01.6-.03.6-.03l-1.54-10.38-.05-.32-.25.04c-1.76.06-3.41.56-4.93,1.34.35-2.03.1-4.5-1.88-5.6,0,0-.34.47-.34.47,0,0-.3.42-.59.82-.09-1.38-.38-2.67-.98-3.94,0,0-.64.18-1.05.29-.08-.88-.25-1.76-.4-2.64-.29-1.58-.7-3.12-1.07-4.68-4.8.26-8.54,4.83-11.2,8.43-2.49,2.45-3.55,5.87-4.18,9.27-.45-.36-.96-.78-.96-.78,0,0-.09-.23-.09-.23l-.3.16c-.92.66-1.3,2.35-1.41,4.24-.06-.04-.13-.08-.2-.12l-.39-.2s-.48.29-.48.29c-5.26,3.63-4.97,13.4-3.68,19.91-.4-.47-.86-.88-1.35-1.23-.46-.32-.84-.58-1.39-.8l-2.08-.38c.13,3.05.56,6.2,1.09,9.07,1.13,6.22,2.47,12.4,3.87,18.56-.46-.81-.91-1.6-.91-1.6,0,0-1.6-3.31-1.6-3.32.17,2.92.37,6.47.39,9.39.06,5.26-1.02,10.49-2.3,15.59-.43-1.63-1.19-4.53-1.19-4.53,0,0-.47-4.39-.47-4.4l-1.12,4.7c-1.35,7.29-4.46,14.05-8.07,20.53-3.31,6.09-6.99,12.02-10.8,17.82-.05-.18-.16-.52-.16-.52,0,0,.38-2.27.38-2.27-1.29,1.88-2.85,4.18-4.17,5.96-2.88,3.81-6.72,6.89-10.4,9.93l.3.51c3.77-1.79,7.24-4.17,10.24-7.09.99-1.02,2.03-2.16,2.74-3.44.04.51.08,1.03.08,1.03,0,0,1.41-1.59,1.42-1.59,5.05-6.81,18.43-26.51,20.07-37.23.64,1.38,1.23,2.66,1.26,2.69M205.43,240.78s0,0,0,0c0,0,0,0,0,0M195.87,244.24c-.98,1.21-1.88,2.48-2.66,3.82-.09-.89-.32-1.77-.87-2.51.01,0-1.19.33-2.06.57l-.03-6.34c.61-.98,1.35-1.92,2.14-2.79,2.31-2.56,5.41-4.63,8.91-4.85-.01.46-.18,5.89-.26,8.33-.17-.1-.33-.19-.51-.27-1.95.93-3.32,2.46-4.65,4.05M189.83,218.23c.16,1.39.28,2.79.35,4.18.04,1.31.13,2.98-.24,4.15,0,0,.12.03.29.08-.42.46-.88.9-1.28,1.31-.79.77-1.61,1.51-2.44,2.24-.26-4.05-2.46-1.84-4.7.11-.56-1.07-2-3.84-2.12-4.06,2.47-3.33,5.82-7.42,10.13-8.01M171.22,240.15s0,.01,0,.02c-.05-.04-.03-.04,0-.02"/>
    <path class="cls-2" d="M173.05,311.53c2-2.86,3.82-6.87,2.02-10.29,0,0-.23.19-.23.19,0,0-.83.26-1.66.51,1.14-3,1.8-6.2,1.58-9.41-.03-.37-.1-1.2-.1-1.52l-.58-.12c-.07.54-.02,1.16-.04,1.65-.04,3.63-1.23,7.14-2.96,10.3,0,0-.87,2.38-.87,2.38,1.04-.7,3.2-2.13,4.49-2.99-.25,5.74-6.93,11.18-10.19,15.58l2.41-.58s3.04-.73,4.14-1c-2.61,3.29-6.08,5.84-9.74,7.86-.57.31-1.15.6-1.72.92l.22.55c1.27-.39,2.52-.85,3.72-1.43,2.99-1.49,5.91-3.49,7.69-6.38.43-.69.76-1.47.96-2.29,0,0-.42,0-.42,0h-2.34c1.37-1.15,2.61-2.48,3.64-3.94"/>
    <path class="cls-2" d="M254.93,348.35c-3.03-5.87-3.76-12.52-3.15-19.1.94-7.15,4.5-13.81,6.73-20.67,1.29-3.55,1.92-7.51,1.13-11.26-.45-2.4-1.07-4.7-1.04-7.11.07-3.59.94-7.15,1.9-10.62.67-2.33,1.46-4.63,2.46-6.82.54-1.18.82-2.45.98-3.69.42-3.62.02-7.25-.62-10.81.01,0,.03-.01.04-.02,1.12-.71,1.58-2.1,2.09-3.25.48-1.25.92-2.44,1.2-3.84.69-3.05-1.01-6.49-4.13-7.47-2.15.03-4.16.7-5.93,1.78,0-.3-.07-.59-.13-.87l-.35-1.55c-.71-3.03-1.44-6.28-2.35-9.27-.71-1.93-1.21-3.93-1.49-5.99-.9-6.18-1.12-12.48-.84-18.72.07-2.15.08-4.34-.28-6.57-.33-2.43-1.72-6.17-4.85-5.76l.35-.03c-1.21-.05-2.46.09-3.65.53-5.73,2.32-6.98,9.27-7.47,14.67-.16,2.22-.19,4.4-.02,6.65,1.34,8.8,2.53,17.74,2.68,26.64,0,2.21-.04,4.45-.47,6.53-.2.83-.38,1.65-.99,2.23-3.85,3.73-3.45,12.15-2.94,17.1l.59-.05c-.04-4.35.05-8.97,1.5-13.08.51-1.39,1.17-2.31,2.19-3.25.63-.76.91-1.72,1.13-2.62.51-2.31.59-4.59.63-6.87.03-8.93-1.04-18.38-2.18-26.89-.19-6.09.34-19.53,8.82-19.08,0,0,.52-.05.28-.02h0s-.01,0,0,0c.17.02.33.1.47.23.92.88,1.19,2.15,1.44,3.48.33,1.94.34,3.99.29,6.06-.14,6.4.14,12.83,1.28,19.15.36,2.12.94,4.21,1.76,6.22.96,2.84,1.81,6.12,2.61,9.06l.4,1.53c.1.42.2.85.56,1.22-1.77,1.31-3.27,3.02-4.37,4.89-2.37,3.8-3.63,8.07-4.87,12.13-2.27,5.79-5.03,11.44-7.79,17.06-.96-2.36-3.01-4.36-6-5.82-2.6-1.27-4.95-1.69-5.05-1.71l-.1.58c.09.02,8.81,1.61,10.79,7.68-.9,1.84-1.8,3.67-2.68,5.51l.52.27c.95-1.77,1.9-3.55,2.84-5.33h.06s-.01-.06-.02-.08c1.06-2,2.1-4,3.14-6,1.97-3.89,4.01-7.61,5.67-11.68.73-2.07,1.37-4.07,2.19-6.03,2.17-5.34,5.99-11.44,12.32-11.59.4.13.84.33,1.18.59,1.4.97,1.92,2.59,1.8,4.34-.26,2.05-.7,4.42-1.74,6.28-.11.17-.23.33-.39.44,0,0,0,0-.01,0-2.29-2.35-6.33-.79-8.58.9l.28.52c2.65-.67,5.27-1.69,7.95-.88.35,2.35.54,4.74.52,7.1-.03,2.4-.24,4.87-1.25,6.95-1.1,2.24-1.96,4.56-2.72,6.91-1.12,3.55-2.05,7.21-2.19,10.97-.08,2.51.52,5.01.93,7.42.67,3.54.02,7.03-1.25,10.37-2.45,7-6.01,13.62-7.02,21.1-1.19,10.01,1.61,20.52,8.47,28.08,3.32,3.78,7.34,6.85,11.72,9.14l.33-.49c-5.97-5.13-11.82-10.38-15.32-17.45"/>
    <path class="cls-2" d="M241.34,336.86c-2.35,1.59-5.04,2.78-7.88,3.78l.06.59c1.6.12,3.16-.12,4.7-.52,4.58-1.2,9.15-4.68,9.77-9.65l-.55-.21c-1.85,2.36-3.64,4.37-6.09,6.01"/>
    <path class="cls-2" d="M207.46,339.24l-.59.06c-.17,1.55.17,3.09.81,4.55,2.09,4.66,7.74,6.24,12.24,4.11l-.1-.58c-.74-.14-1.44-.17-2.13-.25-5.31-.63-8.07-3.01-10.23-7.89"/>
    <path class="cls-2" d="M222.78,386.47c-3.67-8.33-8.37-18.48-11.98-27.55-.33-.83-.59-1.71-.89-2.53-1.27-3.19-4.04-5.62-6.41-7.85-1.33-1.32-2.62-2.03-2.78-3.86-.44-2.83-.57-5.71-.73-8.58,2.48-2.23,4.61-4.86,6.19-7.82,1.42-2.71,2.7-5.6,2.79-8.71-.21.13-2.89.58-5.09.93,2.63-2.05,5.17-4.25,7.45-6.69,1.15-1.19,2.3-2.5,3.42-3.9-1.97,4.86-3.2,10.04-3.8,15.22-.35,2.57-.42,5.27.55,7.75,2.58,6.49,9.65,9.95,16.17,10.92l.13-.57c-5.54-2.37-11.54-5.45-13.9-11.25-1.13-2.83-.53-5.98-.15-8.92,1.02-7.01,3.2-13.92,6.84-20.02,1.25-1.99,2.65-3.93,4.16-5.74.55-.58,1.88-2.07,2.44-2.59.86-.76,1.78-1.65,2.65-2.39.6-.46,2.28-1.72,2.85-2.16.94-.62,2.57-1.63,3.54-2.23.37-.18,1.21-.63,1.6-.83l2.13-1.11-.23-.54c-6.83,2.53-13.21,6.81-17.91,12.53-.15.18-.3.37-.45.56,1.25-3.43,1.83-6.99,1.31-10.47l-.29-1.35s-1.03.85-1.04.85c0,0-.63.47-1.21.91.48-2.93.32-6.06-1.6-8.41l-.26-.28s-.4.03-.41.03c0,0-2.45.45-3.67.68.1-1.98.18-4.52.33-6.72l.06.09c1.76-1.17,8.46-1.3,9.44-1.02l.16-.57c-1.08-.31-7.39-.17-9.62.92.05-.6.1-1.17.16-1.68l.06-.42s-.36.05-.36.05c-5.19.31-9.88,3.25-13.14,7.21,0,0,0-.05,0-.05l.21-1.16s-1.23.38-1.23.38c-1.03.25-1.74.8-2.39,1.34-1.83,1.61-3.22,3.64-4.44,5.69-1.18,1.99-2.24,4.04-3.12,6.17-.33-2.88.35-5.83,1.71-8.37l-1.07.97c-1.35.94-2.29,2.29-3.07,3.66-1.94,3.54-3.11,7.46-3.63,11.46-.26-1.43-.54-2.98-.54-2.98l-.15-.8-.39.69c-.54.7-.84,1.55-1.05,2.41-.67,3.58-.44,7.31.54,10.81l.58-.09c.03-1.1-.01-2.2-.05-3.29-.02-2.62-.46-5.79.14-8.44.25,1.38.69,3.8.69,3.8h.58c.72-2.58,1.63-6.39,2.49-8.86.75-2.16,1.56-4.42,2.88-6.31-.96,2.6-1.15,5.46-.62,8.18,0,0,.16,1.92.16,1.92,3.42-4.81,6.4-10.37,9.9-15.1.13-.16.26-.32.39-.47.05,1.23.1,2.57.1,2.57,0,0-.02.29-.02.29l.29.02,3.78.3c1.31.39,3.36.5,4.93.26,1.63-.24,3.19-.96,4.42-2.07.15,0,3.34.18,4.13.23,1.49,2.17,1.34,5.08.85,7.58-.15.65-.72,2.88-.87,3.51l1.89-1.42s.87-.65,1.71-1.28c-.1,2.7-.89,5.4-1.88,7.89-1.89,4.58-4.75,8.75-7.9,12.54-3.79,4.46-8.04,8.57-12.47,12.4l2.45-.34s3.96-.56,5.68-.8c-2.35,6.61-6.65,12.7-12.76,16.3-2.07,1.34-4.45,2.29-6.77,3.14l.43,1.85s.05-.01.13-.03h0s.01,0,.02,0c.91-.23,5.66-1.41,6.97-1.74.04,1.65.08,3.3.09,4.95,0,1.62.05,3.25-.1,4.87-.01.1-.03.09-.02.14,0,0,.1,1.81.1,1.87-.02.03-.04.06-.07.09-1.36,1.88-2.85,3.69-4.39,5.41l1.76-.28s.99-.27,2.06-.55c-3.31,1.73-6.65,3.46-10.13,4.7-.03,0-.05.02-.08.02l-3.51-.58c1.45-1.66,4.32-4.97,4.32-4.97l.65-.75-.96-.02s-1.49-.07-3.14-.16c2.15-2.96,10.66-5.28,10.76-5.31l.52-.14-.4-.36c-2.47-2.22-6.05-3.27-10.37-3.04-1.99.1-3.68.45-4.72.71.54-1.05,1.04-2.01,1.27-2.41-.77.29-5.91,2.19-8.41,3.12.26-.96.56-1.9.99-2.8l.49-1.74c-.95.67-6.08,4.32-7.15,5.08l.32.5,4.74-2.72c-.06.19-.12.38-.19.57-.36,1.04-.89,2.21-1.39,3.2l1.46-.35s4.03-1.55,6.37-2.45l-1.66,2.98-.33.59.58.38s1.84,1.02,2.95,1.63c-1.01.52-2.01,1.06-2.94,1.76-.16.13-.51.43-.53.77-.03.34.26.63.57.67.14.05.55.02.69.05l1.89.08s5.03.22,6.55.28c-1.07,1.09-4.76,4.88-4.76,4.88,0,0-.88,1.09-.88,1.09.46.01,2.35.09,4.13.15-.77.29-1.53.61-2.27.92-4.32,1.87-8.62,3.85-12.57,6.49-1.46,1.06-2.8,1.94-3.74,3.69l-.59,1.16,1.28.54s.67.16,1.39.34c-3.47,2.16-6.71,4.74-9.02,8.14l.48.34c.7-.9,1.5-1.73,2.35-2.51,2.58-2.26,5.57-4.1,8.66-5.55,0,0,1.65-.52,1.65-.53-.7-.4-2.06-1.17-3.19-1.82,1.54-1.82,3.92-3.09,5.89-4.4,3.95-2.28,8.01-4.6,12.33-6.13,4.37-1.82,8.32-4.34,12.31-6.82l1.51-.75-1.72.21s-1.88.23-3.27.39c1.77-2.48,3.35-5.05,4.94-7.66,0,0,1.52-1.75,1.53-1.75-.83.58-2.31,1.62-3.54,2.48-.19-3.14-.68-6.24-.96-9.37l-.34.03s-1.08.08-1.63.12c2.07-1.08,4.02-2.4,5.8-3.91-.07,2.13-.1,4.25-.01,6.39.05,1.07.1,2.19.38,3.25.29.8.91,1.49,1.43,2.07,1.97,2.14,4.28,4.17,5.79,6.55,1.01,1.44,1.36,3.11,1.9,4.71.98,2.83,2.09,5.61,3.22,8.38,2.63,6.42,5.68,13.46,8.49,19.76,2.86,4.56,5.83,9.05,8.99,13.42,1.06,1.44,2.12,2.88,3.25,4.28l.5-.31c-.76-1.63-1.6-3.21-2.43-4.8-2.53-4.72-5.25-9.34-8.08-13.88M204.06,282.5s-2.57-.21-3.48-.28c.06-.33.28-1.5.48-2.62.75-1.02,1.62-1.99,2.56-2.87,2.58-2.43,5.81-4.26,9.34-4.84.23-.03.72-.08,1.11-.11-.66,2.7-1.26,6.44-1.76,9.09,0,0,.23.02.53.06-2.34,2.08-5.84,2.33-8.77,1.57M175.38,355.55s.02-.01.02-.02c1.25-.8,2.67-1.56,4.08-2.14-.4-.28-2.61-1.83-3.73-2.62.31-.61.75-1.48,1.2-2.37,2.07-.57,9.68-2.27,14.64,1.71-2.02.59-9.02,2.81-10.75,5.69-1.89-.09-3.77-.19-3.77-.19-.21,0-1.07-.05-1.69-.08"/>
  </g>
</svg>